<svg height="512pt" viewBox="-51 0 512 512" width="512pt" xmlns="http://www.w3.org/2000/svg"><path d="m216.796875 51.203125c0-13.519531-11-24.519531-24.519531-24.519531-13.519532 0-24.519532 11-24.519532 24.519531s11 24.515625 24.519532 24.515625c13.519531 0 24.519531-10.996094 24.519531-24.515625zm-34.039063 0c0-5.25 4.273438-9.519531 9.519532-9.519531 5.25 0 9.519531 4.269531 9.519531 9.519531 0 5.246094-4.269531 9.515625-9.519531 9.515625-5.246094 0-9.519532-4.269531-9.519532-9.515625zm0 0"/><path d="m410.769531 184.324219c0-48.433594-39.40625-87.839844-87.839843-87.839844-17.300782 0-33.445313 5.027344-47.058594 13.699219-14.078125-10.667969-30.089844-18.5-47.023438-23.140625 9.253906-9.414063 14.632813-22.167969 14.632813-35.839844 0-28.234375-22.96875-51.203125-51.203125-51.203125-28.230469 0-51.199219 22.96875-51.199219 51.203125 0 13.488281 5.441406 26.304687 14.617187 35.742187-17.511718 4.769532-33.941406 13-48.613281 24.464844-3.261719 2.550782-3.839843 7.265625-1.289062 10.527344 2.550781 3.265625 7.265625 3.84375 10.527343 1.292969 21.871094-17.09375 48.136719-26.132813 75.957032-26.132813 25.894531 0 50.34375 7.8125 71.207031 22.617188-17.445313 16.066406-28.394531 39.082031-28.394531 64.609375 0 18.746093 5.902344 36.136719 15.949218 50.417969h-182.214843v-14.1875c0-27.601563 8.910156-53.707032 25.769531-75.492188 2.535156-3.273438 1.9375-7.984375-1.339844-10.519531-3.273437-2.535157-7.984375-1.9375-10.519531 1.339843-18.914063 24.433594-28.914063 53.714844-28.914063 84.671876v21.667968.019532.019531 65.011719.019531.019531 45.574219c0 11.972656-4.507812 23.519531-12.695312 32.503906-5.871094 6.441406-10.484375 14.054687-13.507812 22.199219h-9.445313c-10.019531 0-18.171875 8.152344-18.171875 18.171875v23.394531c0 10.023438 8.152344 18.175781 18.171875 18.175781h38.425781c4.144532 0 7.5-3.359375 7.5-7.5 0-4.144531-3.355468-7.5-7.5-7.5h-38.425781c-1.75 0-3.171875-1.425781-3.171875-3.175781v-23.394531c0-1.75 1.421875-3.171875 3.171875-3.171875h348.210937c1.75 0 3.175782 1.421875 3.175782 3.171875v23.394531c0 1.75-1.425782 3.175781-3.175782 3.175781h-277.125c-4.144531 0-7.5 3.355469-7.5 7.5 0 4.140625 3.355469 7.5 7.5 7.5h37.335938c2.453125 6.191407 5.757812 12.007813 9.882812 17.320313 1.476563 1.902344 3.691407 2.898437 5.925782 2.898437 1.609375 0 3.230468-.515625 4.597656-1.578125 3.269531-2.539062 3.863281-7.25 1.320312-10.523437-1.992187-2.566407-3.746093-5.28125-5.25-8.117188h98.425782c-9.515625 18.035157-28.367188 29.667969-49.21875 29.667969-7.160156 0-14.148438-1.351562-20.773438-4.019531-3.84375-1.550781-8.210937.3125-9.757812 4.152343-1.546875 3.839844.3125 8.210938 4.152344 9.757813 8.414062 3.390625 17.289062 5.109375 26.378906 5.109375 29.082031 0 55.09375-17.824219 65.703125-44.667969h108.402343c10.023438 0 18.175782-8.152343 18.175782-18.175781v-23.394531c0-10.019531-8.152344-18.171875-18.175782-18.171875h-9.453124c-3.023438-8.148438-7.625-15.75-13.496094-22.195313-8.1875-8.988281-12.699219-20.535156-12.699219-32.503906v-45.578125c0-.007812 0-.011719 0-.019531 0-.003907 0-.011719 0-.019531v-35.457032c44.792969-3.964844 80.035156-41.6875 80.035156-87.492187zm-235.503906-101.199219c-11.695313-6.273438-19.1875-18.625-19.1875-31.921875 0-19.960937 16.238281-36.203125 36.199219-36.203125 19.960937 0 36.203125 16.242188 36.203125 36.203125 0 13.441406-7.363281 25.625-19.234375 31.953125-5.613282-.699219-11.277344-1.058594-16.96875-1.058594-5.734375 0-11.414063.347656-17.011719 1.027344zm147.664063 28.359375c40.164062 0 72.839843 32.675781 72.839843 72.839844 0 40.164062-32.675781 72.839843-72.839843 72.839843-40.167969 0-72.84375-32.675781-72.84375-72.839843 0-40.164063 32.675781-72.839844 72.84375-72.839844zm-58.558594 138.257813c13.878906 12.433593 31.714844 20.527343 51.363281 22.128906v27.921875h-246.910156v-50.050781zm67.972656 145.753906c3.304688 3.625 6.085938 7.71875 8.273438 12.09375h-296.683594c2.183594-4.378906 4.976562-8.472656 8.277344-12.09375 10.710937-11.757813 16.609374-26.890625 16.609374-42.605469v-38.097656h246.914063v38.097656c0 15.714844 5.898437 30.847656 16.609375 42.605469zm0 0"/><path d="m314.671875 166.726562 1.023437-.535156v41.140625h-3.960937c-4.144531 0-7.5 3.355469-7.5 7.5 0 4.140625 3.355469 7.5 7.5 7.5h22.921875c4.140625 0 7.5-3.359375 7.5-7.5 0-4.144531-3.359375-7.5-7.5-7.5h-3.960938v-53.511719c0-2.625-1.371093-5.054687-3.613281-6.414062-2.242187-1.359375-5.03125-1.449219-7.355469-.238281l-11.996093 6.257812c-3.671875 1.917969-5.09375 6.449219-3.179688 10.121094 1.914063 3.671875 6.445313 5.097656 10.121094 3.179687zm0 0"/></svg>